<svg id="Layer_1" data-name="Layer 1" xmlns="http://www.w3.org/2000/svg" viewBox="0 0 60.89 60.89"><defs><style>.cls-1,.cls-2{fill:#1a1818;}.cls-2{font-size:18px;font-family:Montserrat-Bold, Montserrat;font-weight:700;}</style></defs><path class="cls-1" d="M536.8,414.12H478.16A1.14,1.14,0,0,1,477,413V354.35a1.13,1.13,0,0,1,1.13-1.12H536.8a1.12,1.12,0,0,1,1.12,1.12V413A1.13,1.13,0,0,1,536.8,414.12Zm-57.52-2.25h56.39V355.48H479.28Z" transform="translate(-477.03 -353.23)"/><path class="cls-1" d="M480.74,384.44a1.16,1.16,0,0,1-.33-.8,1.13,1.13,0,0,1,1.13-1.12h52.68a1.13,1.13,0,0,1,0,2.25H481.54A1.16,1.16,0,0,1,480.74,384.44Z" transform="translate(-477.03 -353.23)"/><text class="cls-2" transform="translate(9.19 22.44)">J</text><text class="cls-2" transform="translate(27.3 50.94)">VH</text><path class="cls-1" d="M499.68,356.51a1.08,1.08,0,0,1,.79-.33,1.13,1.13,0,0,1,1.13,1.12V410a1.13,1.13,0,1,1-2.25,0V357.3A1.08,1.08,0,0,1,499.68,356.51Z" transform="translate(-477.03 -353.23)"/></svg>